<mxfile host="app.diagrams.net" modified="2023-07-02T11:32:24.643Z" agent="Mozilla/5.0 (Macintosh; Intel Mac OS X 10_15_7) AppleWebKit/537.36 (KHTML, like Gecko) Chrome/114.0.0.0 Safari/537.36" etag="gvgOod6wATJOrv7tKUxu" version="21.5.2">
  <diagram name="Seite-1" id="9v7vIWbiPTcF4lySQxjw">
    <mxGraphModel dx="2074" dy="1135" grid="1" gridSize="10" guides="1" tooltips="1" connect="1" arrows="1" fold="1" page="1" pageScale="1" pageWidth="850" pageHeight="1100" math="0" shadow="0">
      <root>
        <mxCell id="0" />
        <mxCell id="1" parent="0" />
        <mxCell id="TVi67vE6mYPKHUCKhR4j-1" value="Ingredient" style="swimlane;fontStyle=0;childLayout=stackLayout;horizontal=1;startSize=26;fillColor=none;horizontalStack=0;resizeParent=1;resizeParentMax=0;resizeLast=0;collapsible=1;marginBottom=0;whiteSpace=wrap;html=1;" vertex="1" parent="1">
          <mxGeometry x="470" y="410" width="140" height="78" as="geometry" />
        </mxCell>
        <mxCell id="TVi67vE6mYPKHUCKhR4j-2" value="- ingredientId: int" style="text;strokeColor=none;fillColor=none;align=left;verticalAlign=top;spacingLeft=4;spacingRight=4;overflow=hidden;rotatable=0;points=[[0,0.5],[1,0.5]];portConstraint=eastwest;whiteSpace=wrap;html=1;" vertex="1" parent="TVi67vE6mYPKHUCKhR4j-1">
          <mxGeometry y="26" width="140" height="26" as="geometry" />
        </mxCell>
        <mxCell id="TVi67vE6mYPKHUCKhR4j-3" value="- name: String" style="text;strokeColor=none;fillColor=none;align=left;verticalAlign=top;spacingLeft=4;spacingRight=4;overflow=hidden;rotatable=0;points=[[0,0.5],[1,0.5]];portConstraint=eastwest;whiteSpace=wrap;html=1;" vertex="1" parent="TVi67vE6mYPKHUCKhR4j-1">
          <mxGeometry y="52" width="140" height="26" as="geometry" />
        </mxCell>
        <mxCell id="TVi67vE6mYPKHUCKhR4j-5" value="IngredientAmount" style="swimlane;fontStyle=0;childLayout=stackLayout;horizontal=1;startSize=26;fillColor=none;horizontalStack=0;resizeParent=1;resizeParentMax=0;resizeLast=0;collapsible=1;marginBottom=0;whiteSpace=wrap;html=1;" vertex="1" parent="1">
          <mxGeometry x="470" y="580" width="140" height="78" as="geometry" />
        </mxCell>
        <mxCell id="TVi67vE6mYPKHUCKhR4j-6" value="- ingredient: Ingredient" style="text;strokeColor=none;fillColor=none;align=left;verticalAlign=top;spacingLeft=4;spacingRight=4;overflow=hidden;rotatable=0;points=[[0,0.5],[1,0.5]];portConstraint=eastwest;whiteSpace=wrap;html=1;" vertex="1" parent="TVi67vE6mYPKHUCKhR4j-5">
          <mxGeometry y="26" width="140" height="26" as="geometry" />
        </mxCell>
        <mxCell id="TVi67vE6mYPKHUCKhR4j-7" value="- amount: float" style="text;strokeColor=none;fillColor=none;align=left;verticalAlign=top;spacingLeft=4;spacingRight=4;overflow=hidden;rotatable=0;points=[[0,0.5],[1,0.5]];portConstraint=eastwest;whiteSpace=wrap;html=1;" vertex="1" parent="TVi67vE6mYPKHUCKhR4j-5">
          <mxGeometry y="52" width="140" height="26" as="geometry" />
        </mxCell>
        <mxCell id="TVi67vE6mYPKHUCKhR4j-8" value="Beer" style="swimlane;fontStyle=0;childLayout=stackLayout;horizontal=1;startSize=26;fillColor=none;horizontalStack=0;resizeParent=1;resizeParentMax=0;resizeLast=0;collapsible=1;marginBottom=0;whiteSpace=wrap;html=1;" vertex="1" parent="1">
          <mxGeometry x="440" y="160" width="220" height="182" as="geometry" />
        </mxCell>
        <mxCell id="TVi67vE6mYPKHUCKhR4j-9" value="- beerId: int" style="text;strokeColor=none;fillColor=none;align=left;verticalAlign=top;spacingLeft=4;spacingRight=4;overflow=hidden;rotatable=0;points=[[0,0.5],[1,0.5]];portConstraint=eastwest;whiteSpace=wrap;html=1;" vertex="1" parent="TVi67vE6mYPKHUCKhR4j-8">
          <mxGeometry y="26" width="220" height="26" as="geometry" />
        </mxCell>
        <mxCell id="TVi67vE6mYPKHUCKhR4j-10" value="- price: double" style="text;strokeColor=none;fillColor=none;align=left;verticalAlign=top;spacingLeft=4;spacingRight=4;overflow=hidden;rotatable=0;points=[[0,0.5],[1,0.5]];portConstraint=eastwest;whiteSpace=wrap;html=1;" vertex="1" parent="TVi67vE6mYPKHUCKhR4j-8">
          <mxGeometry y="52" width="220" height="26" as="geometry" />
        </mxCell>
        <mxCell id="TVi67vE6mYPKHUCKhR4j-11" value="- imageUrl: String" style="text;strokeColor=none;fillColor=none;align=left;verticalAlign=top;spacingLeft=4;spacingRight=4;overflow=hidden;rotatable=0;points=[[0,0.5],[1,0.5]];portConstraint=eastwest;whiteSpace=wrap;html=1;" vertex="1" parent="TVi67vE6mYPKHUCKhR4j-8">
          <mxGeometry y="78" width="220" height="26" as="geometry" />
        </mxCell>
        <mxCell id="TVi67vE6mYPKHUCKhR4j-13" value="- ingredients: List&amp;lt;IngredientAmount&amp;gt;" style="text;strokeColor=none;fillColor=none;align=left;verticalAlign=top;spacingLeft=4;spacingRight=4;overflow=hidden;rotatable=0;points=[[0,0.5],[1,0.5]];portConstraint=eastwest;whiteSpace=wrap;html=1;" vertex="1" parent="TVi67vE6mYPKHUCKhR4j-8">
          <mxGeometry y="104" width="220" height="26" as="geometry" />
        </mxCell>
        <mxCell id="TVi67vE6mYPKHUCKhR4j-14" value="- stock: int" style="text;strokeColor=none;fillColor=none;align=left;verticalAlign=top;spacingLeft=4;spacingRight=4;overflow=hidden;rotatable=0;points=[[0,0.5],[1,0.5]];portConstraint=eastwest;whiteSpace=wrap;html=1;" vertex="1" parent="TVi67vE6mYPKHUCKhR4j-8">
          <mxGeometry y="130" width="220" height="26" as="geometry" />
        </mxCell>
        <mxCell id="TVi67vE6mYPKHUCKhR4j-12" value="- name: String" style="text;strokeColor=none;fillColor=none;align=left;verticalAlign=top;spacingLeft=4;spacingRight=4;overflow=hidden;rotatable=0;points=[[0,0.5],[1,0.5]];portConstraint=eastwest;whiteSpace=wrap;html=1;" vertex="1" parent="TVi67vE6mYPKHUCKhR4j-8">
          <mxGeometry y="156" width="220" height="26" as="geometry" />
        </mxCell>
        <mxCell id="TVi67vE6mYPKHUCKhR4j-15" value="Customer" style="swimlane;fontStyle=0;childLayout=stackLayout;horizontal=1;startSize=26;fillColor=none;horizontalStack=0;resizeParent=1;resizeParentMax=0;resizeLast=0;collapsible=1;marginBottom=0;whiteSpace=wrap;html=1;" vertex="1" parent="1">
          <mxGeometry x="210" y="580" width="140" height="182" as="geometry" />
        </mxCell>
        <mxCell id="TVi67vE6mYPKHUCKhR4j-16" value="- customerId: int" style="text;strokeColor=none;fillColor=none;align=left;verticalAlign=top;spacingLeft=4;spacingRight=4;overflow=hidden;rotatable=0;points=[[0,0.5],[1,0.5]];portConstraint=eastwest;whiteSpace=wrap;html=1;" vertex="1" parent="TVi67vE6mYPKHUCKhR4j-15">
          <mxGeometry y="26" width="140" height="26" as="geometry" />
        </mxCell>
        <mxCell id="TVi67vE6mYPKHUCKhR4j-18" value="- name: string" style="text;strokeColor=none;fillColor=none;align=left;verticalAlign=top;spacingLeft=4;spacingRight=4;overflow=hidden;rotatable=0;points=[[0,0.5],[1,0.5]];portConstraint=eastwest;whiteSpace=wrap;html=1;" vertex="1" parent="TVi67vE6mYPKHUCKhR4j-15">
          <mxGeometry y="52" width="140" height="26" as="geometry" />
        </mxCell>
        <mxCell id="TVi67vE6mYPKHUCKhR4j-20" value="- surname: string" style="text;strokeColor=none;fillColor=none;align=left;verticalAlign=top;spacingLeft=4;spacingRight=4;overflow=hidden;rotatable=0;points=[[0,0.5],[1,0.5]];portConstraint=eastwest;whiteSpace=wrap;html=1;" vertex="1" parent="TVi67vE6mYPKHUCKhR4j-15">
          <mxGeometry y="78" width="140" height="26" as="geometry" />
        </mxCell>
        <mxCell id="TVi67vE6mYPKHUCKhR4j-21" value="- street: string" style="text;strokeColor=none;fillColor=none;align=left;verticalAlign=top;spacingLeft=4;spacingRight=4;overflow=hidden;rotatable=0;points=[[0,0.5],[1,0.5]];portConstraint=eastwest;whiteSpace=wrap;html=1;" vertex="1" parent="TVi67vE6mYPKHUCKhR4j-15">
          <mxGeometry y="104" width="140" height="26" as="geometry" />
        </mxCell>
        <mxCell id="TVi67vE6mYPKHUCKhR4j-19" value="- state: string" style="text;strokeColor=none;fillColor=none;align=left;verticalAlign=top;spacingLeft=4;spacingRight=4;overflow=hidden;rotatable=0;points=[[0,0.5],[1,0.5]];portConstraint=eastwest;whiteSpace=wrap;html=1;" vertex="1" parent="TVi67vE6mYPKHUCKhR4j-15">
          <mxGeometry y="130" width="140" height="26" as="geometry" />
        </mxCell>
        <mxCell id="TVi67vE6mYPKHUCKhR4j-17" value="- country: string" style="text;strokeColor=none;fillColor=none;align=left;verticalAlign=top;spacingLeft=4;spacingRight=4;overflow=hidden;rotatable=0;points=[[0,0.5],[1,0.5]];portConstraint=eastwest;whiteSpace=wrap;html=1;" vertex="1" parent="TVi67vE6mYPKHUCKhR4j-15">
          <mxGeometry y="156" width="140" height="26" as="geometry" />
        </mxCell>
        <mxCell id="TVi67vE6mYPKHUCKhR4j-22" value="Order" style="swimlane;fontStyle=0;childLayout=stackLayout;horizontal=1;startSize=26;fillColor=none;horizontalStack=0;resizeParent=1;resizeParentMax=0;resizeLast=0;collapsible=1;marginBottom=0;whiteSpace=wrap;html=1;" vertex="1" parent="1">
          <mxGeometry x="200" y="370" width="180" height="130" as="geometry" />
        </mxCell>
        <mxCell id="TVi67vE6mYPKHUCKhR4j-24" value="- orderId: int" style="text;strokeColor=none;fillColor=none;align=left;verticalAlign=top;spacingLeft=4;spacingRight=4;overflow=hidden;rotatable=0;points=[[0,0.5],[1,0.5]];portConstraint=eastwest;whiteSpace=wrap;html=1;" vertex="1" parent="TVi67vE6mYPKHUCKhR4j-22">
          <mxGeometry y="26" width="180" height="26" as="geometry" />
        </mxCell>
        <mxCell id="TVi67vE6mYPKHUCKhR4j-23" value="- customerId: int" style="text;strokeColor=none;fillColor=none;align=left;verticalAlign=top;spacingLeft=4;spacingRight=4;overflow=hidden;rotatable=0;points=[[0,0.5],[1,0.5]];portConstraint=eastwest;whiteSpace=wrap;html=1;" vertex="1" parent="TVi67vE6mYPKHUCKhR4j-22">
          <mxGeometry y="52" width="180" height="26" as="geometry" />
        </mxCell>
        <mxCell id="TVi67vE6mYPKHUCKhR4j-25" value="- beerOrder: List&amp;lt;BeerOrder&amp;gt;" style="text;strokeColor=none;fillColor=none;align=left;verticalAlign=top;spacingLeft=4;spacingRight=4;overflow=hidden;rotatable=0;points=[[0,0.5],[1,0.5]];portConstraint=eastwest;whiteSpace=wrap;html=1;" vertex="1" parent="TVi67vE6mYPKHUCKhR4j-22">
          <mxGeometry y="78" width="180" height="26" as="geometry" />
        </mxCell>
        <mxCell id="TVi67vE6mYPKHUCKhR4j-26" value="- price: float" style="text;strokeColor=none;fillColor=none;align=left;verticalAlign=top;spacingLeft=4;spacingRight=4;overflow=hidden;rotatable=0;points=[[0,0.5],[1,0.5]];portConstraint=eastwest;whiteSpace=wrap;html=1;" vertex="1" parent="TVi67vE6mYPKHUCKhR4j-22">
          <mxGeometry y="104" width="180" height="26" as="geometry" />
        </mxCell>
        <mxCell id="TVi67vE6mYPKHUCKhR4j-29" value="BeerOrder" style="swimlane;fontStyle=0;childLayout=stackLayout;horizontal=1;startSize=26;fillColor=none;horizontalStack=0;resizeParent=1;resizeParentMax=0;resizeLast=0;collapsible=1;marginBottom=0;whiteSpace=wrap;html=1;" vertex="1" parent="1">
          <mxGeometry x="220" y="220" width="140" height="78" as="geometry" />
        </mxCell>
        <mxCell id="TVi67vE6mYPKHUCKhR4j-30" value="- beerId: int" style="text;strokeColor=none;fillColor=none;align=left;verticalAlign=top;spacingLeft=4;spacingRight=4;overflow=hidden;rotatable=0;points=[[0,0.5],[1,0.5]];portConstraint=eastwest;whiteSpace=wrap;html=1;" vertex="1" parent="TVi67vE6mYPKHUCKhR4j-29">
          <mxGeometry y="26" width="140" height="26" as="geometry" />
        </mxCell>
        <mxCell id="TVi67vE6mYPKHUCKhR4j-31" value="- amount: double" style="text;strokeColor=none;fillColor=none;align=left;verticalAlign=top;spacingLeft=4;spacingRight=4;overflow=hidden;rotatable=0;points=[[0,0.5],[1,0.5]];portConstraint=eastwest;whiteSpace=wrap;html=1;" vertex="1" parent="TVi67vE6mYPKHUCKhR4j-29">
          <mxGeometry y="52" width="140" height="26" as="geometry" />
        </mxCell>
        <mxCell id="TVi67vE6mYPKHUCKhR4j-34" value="1" style="endArrow=open;html=1;endSize=12;startArrow=diamondThin;startSize=14;startFill=1;edgeStyle=orthogonalEdgeStyle;align=left;verticalAlign=bottom;rounded=0;entryX=1;entryY=0.5;entryDx=0;entryDy=0;exitX=1;exitY=0.5;exitDx=0;exitDy=0;" edge="1" parent="1" source="TVi67vE6mYPKHUCKhR4j-25" target="TVi67vE6mYPKHUCKhR4j-30">
          <mxGeometry x="-1" y="3" relative="1" as="geometry">
            <mxPoint x="390" y="750" as="sourcePoint" />
            <mxPoint x="550" y="750" as="targetPoint" />
            <Array as="points">
              <mxPoint x="410" y="461" />
              <mxPoint x="410" y="259" />
            </Array>
          </mxGeometry>
        </mxCell>
        <mxCell id="TVi67vE6mYPKHUCKhR4j-35" value="* beerOrder" style="edgeLabel;html=1;align=center;verticalAlign=middle;resizable=0;points=[];" vertex="1" connectable="0" parent="TVi67vE6mYPKHUCKhR4j-34">
          <mxGeometry x="0.219" relative="1" as="geometry">
            <mxPoint y="-47" as="offset" />
          </mxGeometry>
        </mxCell>
        <mxCell id="TVi67vE6mYPKHUCKhR4j-36" value="1" style="endArrow=open;html=1;endSize=12;startArrow=diamondThin;startSize=14;startFill=1;edgeStyle=orthogonalEdgeStyle;align=left;verticalAlign=bottom;rounded=0;entryX=1;entryY=0.5;entryDx=0;entryDy=0;exitX=1;exitY=0.5;exitDx=0;exitDy=0;" edge="1" parent="1" source="TVi67vE6mYPKHUCKhR4j-6" target="TVi67vE6mYPKHUCKhR4j-2">
          <mxGeometry x="-1" y="3" relative="1" as="geometry">
            <mxPoint x="780" y="579.5" as="sourcePoint" />
            <mxPoint x="760" y="377.5" as="targetPoint" />
            <Array as="points">
              <mxPoint x="640" y="619" />
              <mxPoint x="640" y="449" />
            </Array>
          </mxGeometry>
        </mxCell>
        <mxCell id="TVi67vE6mYPKHUCKhR4j-37" value="1 ingredient" style="edgeLabel;html=1;align=center;verticalAlign=middle;resizable=0;points=[];" vertex="1" connectable="0" parent="TVi67vE6mYPKHUCKhR4j-36">
          <mxGeometry x="0.219" relative="1" as="geometry">
            <mxPoint y="-47" as="offset" />
          </mxGeometry>
        </mxCell>
        <mxCell id="TVi67vE6mYPKHUCKhR4j-40" value="1" style="endArrow=open;html=1;endSize=12;startArrow=diamondThin;startSize=14;startFill=1;edgeStyle=orthogonalEdgeStyle;align=left;verticalAlign=bottom;rounded=0;exitX=1;exitY=0.5;exitDx=0;exitDy=0;entryX=0;entryY=0.5;entryDx=0;entryDy=0;" edge="1" parent="1" source="TVi67vE6mYPKHUCKhR4j-13" target="TVi67vE6mYPKHUCKhR4j-2">
          <mxGeometry x="-1" y="3" relative="1" as="geometry">
            <mxPoint x="720" y="460" as="sourcePoint" />
            <mxPoint x="610" y="450" as="targetPoint" />
            <Array as="points">
              <mxPoint x="710" y="277" />
              <mxPoint x="710" y="390" />
              <mxPoint x="450" y="390" />
              <mxPoint x="450" y="449" />
            </Array>
          </mxGeometry>
        </mxCell>
        <mxCell id="TVi67vE6mYPKHUCKhR4j-41" value="* ingredients" style="edgeLabel;html=1;align=center;verticalAlign=middle;resizable=0;points=[];" vertex="1" connectable="0" parent="TVi67vE6mYPKHUCKhR4j-40">
          <mxGeometry x="0.219" relative="1" as="geometry">
            <mxPoint x="-87" y="6" as="offset" />
          </mxGeometry>
        </mxCell>
        <mxCell id="TVi67vE6mYPKHUCKhR4j-42" value="1" style="endArrow=open;html=1;endSize=12;startArrow=diamondThin;startSize=14;startFill=1;edgeStyle=orthogonalEdgeStyle;align=left;verticalAlign=bottom;rounded=0;entryX=0;entryY=0.5;entryDx=0;entryDy=0;exitX=0;exitY=0.5;exitDx=0;exitDy=0;" edge="1" parent="1" source="TVi67vE6mYPKHUCKhR4j-30" target="TVi67vE6mYPKHUCKhR4j-9">
          <mxGeometry x="-0.9524" y="-10" relative="1" as="geometry">
            <mxPoint x="130" y="330" as="sourcePoint" />
            <mxPoint x="100" y="100" as="targetPoint" />
            <Array as="points">
              <mxPoint x="130" y="259" />
              <mxPoint x="130" y="199" />
            </Array>
            <mxPoint as="offset" />
          </mxGeometry>
        </mxCell>
        <mxCell id="TVi67vE6mYPKHUCKhR4j-43" value="1 beer" style="edgeLabel;html=1;align=center;verticalAlign=middle;resizable=0;points=[];" vertex="1" connectable="0" parent="TVi67vE6mYPKHUCKhR4j-42">
          <mxGeometry x="0.219" relative="1" as="geometry">
            <mxPoint x="140" y="-13" as="offset" />
          </mxGeometry>
        </mxCell>
        <mxCell id="TVi67vE6mYPKHUCKhR4j-44" value="1" style="endArrow=open;html=1;endSize=12;startArrow=diamondThin;startSize=14;startFill=1;edgeStyle=orthogonalEdgeStyle;align=left;verticalAlign=bottom;rounded=0;entryX=0;entryY=0.5;entryDx=0;entryDy=0;exitX=0;exitY=0.5;exitDx=0;exitDy=0;" edge="1" parent="1" source="TVi67vE6mYPKHUCKhR4j-23" target="TVi67vE6mYPKHUCKhR4j-16">
          <mxGeometry x="-0.9524" y="-10" relative="1" as="geometry">
            <mxPoint x="230" y="269" as="sourcePoint" />
            <mxPoint x="450" y="209" as="targetPoint" />
            <Array as="points">
              <mxPoint x="110" y="435" />
              <mxPoint x="110" y="619" />
            </Array>
            <mxPoint as="offset" />
          </mxGeometry>
        </mxCell>
        <mxCell id="TVi67vE6mYPKHUCKhR4j-45" value="1 beer" style="edgeLabel;html=1;align=center;verticalAlign=middle;resizable=0;points=[];" vertex="1" connectable="0" parent="TVi67vE6mYPKHUCKhR4j-44">
          <mxGeometry x="0.219" relative="1" as="geometry">
            <mxPoint x="140" y="-13" as="offset" />
          </mxGeometry>
        </mxCell>
        <mxCell id="TVi67vE6mYPKHUCKhR4j-46" value="1 customer" style="edgeLabel;html=1;align=center;verticalAlign=middle;resizable=0;points=[];" vertex="1" connectable="0" parent="1">
          <mxGeometry x="180" y="610" as="geometry">
            <mxPoint x="-7" y="-3" as="offset" />
          </mxGeometry>
        </mxCell>
      </root>
    </mxGraphModel>
  </diagram>
</mxfile>
